<?xml version="1.0" standalone="no"?>
<!DOCTYPE svg PUBLIC "-//W3C//DTD SVG 20010904//EN"
 "http://www.w3.org/TR/2001/REC-SVG-20010904/DTD/svg10.dtd">
<svg version="1.0" xmlns="http://www.w3.org/2000/svg"
 width="48.000000pt" height="48.000000pt" viewBox="0 0 48.000000 48.000000"
 preserveAspectRatio="xMidYMid meet">

<g transform="translate(0.000000,48.000000) scale(0.100000,-0.100000)"
fill="#000000" stroke="none">
<path d="M130 240 l0 -230 110 0 110 0 0 230 0 230 -110 0 -110 0 0 -230z
m160 168 c11 -24 20 -35 20 -25 0 10 -5 28 -11 39 -9 16 -8 19 3 16 8 -3 13
-21 14 -45 0 -22 4 -48 8 -58 6 -18 5 -18 -15 1 -15 14 -36 19 -73 19 l-53 0
7 30 c14 56 21 65 52 65 24 0 32 -7 48 -42z m-114 -3 c-6 -19 -13 -30 -14 -25
-6 16 7 60 17 60 4 0 3 -16 -3 -35z m129 -218 c0 -47 4 -72 13 -75 18 -6 15
-48 -5 -72 -14 -16 -30 -20 -74 -20 -55 0 -57 1 -73 34 -19 40 -20 56 -5 56 5
0 8 -4 4 -9 -10 -17 26 -41 63 -41 61 0 83 10 80 34 -3 18 -11 22 -68 26 l-65
5 0 66 0 65 65 1 65 1 0 -71z"/>
<path d="M200 214 c0 -11 5 -14 16 -10 9 3 27 6 40 6 13 0 24 5 24 10 0 6 -18
10 -40 10 -30 0 -40 -4 -40 -16z"/>
</g>
</svg>
